<mxfile host="app.diagrams.net" modified="2024-01-05T03:12:27.441Z" agent="Mozilla/5.0 (Windows NT 10.0; Win64; x64) AppleWebKit/537.36 (KHTML, like Gecko) Chrome/120.0.0.0 Safari/537.36" etag="gwaAhs0EwIajfV09nMmy" version="22.1.16" type="github">
  <diagram name="Page-1" id="2YBvvXClWsGukQMizWep">
    <mxGraphModel dx="1843" dy="1741" grid="1" gridSize="10" guides="1" tooltips="1" connect="1" arrows="1" fold="1" page="1" pageScale="1" pageWidth="850" pageHeight="1100" math="0" shadow="0">
      <root>
        <mxCell id="0" />
        <mxCell id="1" parent="0" />
        <mxCell id="e49Z0NjCQxnOTRCqXlO4-41" value="" style="rounded=0;whiteSpace=wrap;html=1;" vertex="1" parent="1">
          <mxGeometry x="-10" y="-80" width="1170" height="600" as="geometry" />
        </mxCell>
        <mxCell id="e49Z0NjCQxnOTRCqXlO4-1" value="Auth" style="ellipse;whiteSpace=wrap;html=1;" vertex="1" parent="1">
          <mxGeometry x="230" y="145" width="120" height="70" as="geometry" />
        </mxCell>
        <mxCell id="e49Z0NjCQxnOTRCqXlO4-4" style="rounded=0;orthogonalLoop=1;jettySize=auto;html=1;dashed=1;dashPattern=12 12;" edge="1" parent="1" source="e49Z0NjCQxnOTRCqXlO4-3" target="e49Z0NjCQxnOTRCqXlO4-1">
          <mxGeometry relative="1" as="geometry" />
        </mxCell>
        <mxCell id="e49Z0NjCQxnOTRCqXlO4-3" value="Actor" style="shape=umlActor;verticalLabelPosition=bottom;verticalAlign=top;html=1;outlineConnect=0;" vertex="1" parent="1">
          <mxGeometry x="60" y="150" width="30" height="60" as="geometry" />
        </mxCell>
        <mxCell id="e49Z0NjCQxnOTRCqXlO4-6" style="rounded=0;orthogonalLoop=1;jettySize=auto;html=1;entryX=1;entryY=0.5;entryDx=0;entryDy=0;dashed=1;dashPattern=12 12;" edge="1" parent="1" source="e49Z0NjCQxnOTRCqXlO4-5" target="e49Z0NjCQxnOTRCqXlO4-1">
          <mxGeometry relative="1" as="geometry" />
        </mxCell>
        <mxCell id="e49Z0NjCQxnOTRCqXlO4-5" value="Register IOT Device" style="ellipse;whiteSpace=wrap;html=1;" vertex="1" parent="1">
          <mxGeometry x="450" y="140" width="120" height="70" as="geometry" />
        </mxCell>
        <mxCell id="e49Z0NjCQxnOTRCqXlO4-7" value="Include" style="text;html=1;align=center;verticalAlign=middle;resizable=0;points=[];autosize=1;strokeColor=none;fillColor=none;rotation=0;" vertex="1" parent="1">
          <mxGeometry x="375" y="150" width="60" height="30" as="geometry" />
        </mxCell>
        <mxCell id="e49Z0NjCQxnOTRCqXlO4-8" value="Include" style="text;html=1;align=center;verticalAlign=middle;resizable=0;points=[];autosize=1;strokeColor=none;fillColor=none;rotation=0;" vertex="1" parent="1">
          <mxGeometry x="130" y="150" width="60" height="30" as="geometry" />
        </mxCell>
        <mxCell id="e49Z0NjCQxnOTRCqXlO4-10" style="edgeStyle=orthogonalEdgeStyle;rounded=0;orthogonalLoop=1;jettySize=auto;html=1;dashed=1;dashPattern=12 12;" edge="1" parent="1" source="e49Z0NjCQxnOTRCqXlO4-9" target="e49Z0NjCQxnOTRCqXlO4-5">
          <mxGeometry relative="1" as="geometry" />
        </mxCell>
        <mxCell id="e49Z0NjCQxnOTRCqXlO4-9" value="Controller" style="ellipse;whiteSpace=wrap;html=1;" vertex="1" parent="1">
          <mxGeometry x="680" y="135" width="120" height="80" as="geometry" />
        </mxCell>
        <mxCell id="e49Z0NjCQxnOTRCqXlO4-12" value="Include" style="text;html=1;align=center;verticalAlign=middle;resizable=0;points=[];autosize=1;strokeColor=none;fillColor=none;rotation=0;" vertex="1" parent="1">
          <mxGeometry x="600" y="145" width="60" height="30" as="geometry" />
        </mxCell>
        <mxCell id="e49Z0NjCQxnOTRCqXlO4-15" value="Register Port, USB, COM3, Ethernet" style="text;html=1;strokeColor=none;fillColor=none;align=center;verticalAlign=middle;whiteSpace=wrap;rounded=0;" vertex="1" parent="1">
          <mxGeometry x="405" y="220" width="210" height="30" as="geometry" />
        </mxCell>
        <mxCell id="e49Z0NjCQxnOTRCqXlO4-18" style="rounded=0;orthogonalLoop=1;jettySize=auto;html=1;entryX=1;entryY=0;entryDx=0;entryDy=0;dashed=1;dashPattern=12 12;" edge="1" parent="1" source="e49Z0NjCQxnOTRCqXlO4-17" target="e49Z0NjCQxnOTRCqXlO4-9">
          <mxGeometry relative="1" as="geometry" />
        </mxCell>
        <mxCell id="e49Z0NjCQxnOTRCqXlO4-17" value="&lt;div&gt;Cek suhu air&lt;/div&gt;" style="ellipse;whiteSpace=wrap;html=1;" vertex="1" parent="1">
          <mxGeometry x="870" y="50" width="120" height="80" as="geometry" />
        </mxCell>
        <mxCell id="e49Z0NjCQxnOTRCqXlO4-19" value="Extends" style="text;html=1;align=center;verticalAlign=middle;resizable=0;points=[];autosize=1;strokeColor=none;fillColor=none;rotation=-25;" vertex="1" parent="1">
          <mxGeometry x="790" y="100" width="70" height="30" as="geometry" />
        </mxCell>
        <mxCell id="e49Z0NjCQxnOTRCqXlO4-21" style="rounded=0;orthogonalLoop=1;jettySize=auto;html=1;dashed=1;dashPattern=8 8;" edge="1" parent="1" source="e49Z0NjCQxnOTRCqXlO4-20" target="e49Z0NjCQxnOTRCqXlO4-9">
          <mxGeometry relative="1" as="geometry" />
        </mxCell>
        <mxCell id="e49Z0NjCQxnOTRCqXlO4-20" value="&lt;div&gt;Control Automasi&lt;/div&gt;&lt;div&gt;Pemberian pakan&amp;nbsp;&lt;/div&gt;" style="ellipse;whiteSpace=wrap;html=1;" vertex="1" parent="1">
          <mxGeometry x="900" y="130" width="120" height="80" as="geometry" />
        </mxCell>
        <mxCell id="e49Z0NjCQxnOTRCqXlO4-22" value="Extends" style="text;html=1;align=center;verticalAlign=middle;resizable=0;points=[];autosize=1;strokeColor=none;fillColor=none;rotation=0;" vertex="1" parent="1">
          <mxGeometry x="820" y="140" width="70" height="30" as="geometry" />
        </mxCell>
        <mxCell id="e49Z0NjCQxnOTRCqXlO4-26" style="rounded=0;orthogonalLoop=1;jettySize=auto;html=1;entryX=1;entryY=1;entryDx=0;entryDy=0;dashed=1;dashPattern=8 8;" edge="1" parent="1" source="e49Z0NjCQxnOTRCqXlO4-23" target="e49Z0NjCQxnOTRCqXlO4-9">
          <mxGeometry relative="1" as="geometry" />
        </mxCell>
        <mxCell id="e49Z0NjCQxnOTRCqXlO4-23" value="&lt;div&gt;On / Off Device&lt;/div&gt;" style="ellipse;whiteSpace=wrap;html=1;" vertex="1" parent="1">
          <mxGeometry x="890" y="220" width="120" height="80" as="geometry" />
        </mxCell>
        <mxCell id="e49Z0NjCQxnOTRCqXlO4-25" value="Extends" style="text;html=1;align=center;verticalAlign=middle;resizable=0;points=[];autosize=1;strokeColor=none;fillColor=none;rotation=25;" vertex="1" parent="1">
          <mxGeometry x="800" y="220" width="70" height="30" as="geometry" />
        </mxCell>
        <mxCell id="e49Z0NjCQxnOTRCqXlO4-28" style="rounded=0;orthogonalLoop=1;jettySize=auto;html=1;entryX=1;entryY=1;entryDx=0;entryDy=0;dashed=1;dashPattern=8 8;" edge="1" parent="1" source="e49Z0NjCQxnOTRCqXlO4-27" target="e49Z0NjCQxnOTRCqXlO4-9">
          <mxGeometry relative="1" as="geometry" />
        </mxCell>
        <mxCell id="e49Z0NjCQxnOTRCqXlO4-27" value="Pemberian pakan Manual" style="ellipse;whiteSpace=wrap;html=1;" vertex="1" parent="1">
          <mxGeometry x="780" y="270" width="120" height="80" as="geometry" />
        </mxCell>
        <mxCell id="e49Z0NjCQxnOTRCqXlO4-29" value="Extends" style="text;html=1;align=center;verticalAlign=middle;resizable=0;points=[];autosize=1;strokeColor=none;fillColor=none;rotation=75;" vertex="1" parent="1">
          <mxGeometry x="750" y="240" width="70" height="30" as="geometry" />
        </mxCell>
        <mxCell id="e49Z0NjCQxnOTRCqXlO4-31" value="Timer" style="ellipse;whiteSpace=wrap;html=1;" vertex="1" parent="1">
          <mxGeometry x="940" y="350" width="120" height="80" as="geometry" />
        </mxCell>
        <mxCell id="e49Z0NjCQxnOTRCqXlO4-32" style="rounded=0;orthogonalLoop=1;jettySize=auto;html=1;entryX=0.818;entryY=0.878;entryDx=0;entryDy=0;entryPerimeter=0;dashed=1;" edge="1" parent="1" source="e49Z0NjCQxnOTRCqXlO4-31" target="e49Z0NjCQxnOTRCqXlO4-27">
          <mxGeometry relative="1" as="geometry" />
        </mxCell>
        <mxCell id="e49Z0NjCQxnOTRCqXlO4-34" style="rounded=0;orthogonalLoop=1;jettySize=auto;html=1;dashed=1;dashPattern=8 8;" edge="1" parent="1" source="e49Z0NjCQxnOTRCqXlO4-33" target="e49Z0NjCQxnOTRCqXlO4-27">
          <mxGeometry relative="1" as="geometry" />
        </mxCell>
        <mxCell id="e49Z0NjCQxnOTRCqXlO4-33" value="Langsung" style="ellipse;whiteSpace=wrap;html=1;" vertex="1" parent="1">
          <mxGeometry x="850" y="410" width="120" height="80" as="geometry" />
        </mxCell>
        <mxCell id="e49Z0NjCQxnOTRCqXlO4-35" value="Extends" style="text;html=1;align=center;verticalAlign=middle;resizable=0;points=[];autosize=1;strokeColor=none;fillColor=none;rotation=75;" vertex="1" parent="1">
          <mxGeometry x="830" y="375" width="70" height="30" as="geometry" />
        </mxCell>
        <mxCell id="e49Z0NjCQxnOTRCqXlO4-36" value="Extends" style="text;html=1;align=center;verticalAlign=middle;resizable=0;points=[];autosize=1;strokeColor=none;fillColor=none;rotation=35;" vertex="1" parent="1">
          <mxGeometry x="895" y="320" width="70" height="30" as="geometry" />
        </mxCell>
        <mxCell id="e49Z0NjCQxnOTRCqXlO4-37" value="&lt;div&gt;Cek Ph Air&lt;/div&gt;" style="ellipse;whiteSpace=wrap;html=1;" vertex="1" parent="1">
          <mxGeometry x="1010" y="190" width="120" height="80" as="geometry" />
        </mxCell>
        <mxCell id="e49Z0NjCQxnOTRCqXlO4-38" style="rounded=0;orthogonalLoop=1;jettySize=auto;html=1;entryX=0.988;entryY=0.745;entryDx=0;entryDy=0;entryPerimeter=0;dashed=1;dashPattern=12 12;" edge="1" parent="1" source="e49Z0NjCQxnOTRCqXlO4-37" target="e49Z0NjCQxnOTRCqXlO4-9">
          <mxGeometry relative="1" as="geometry" />
        </mxCell>
        <mxCell id="e49Z0NjCQxnOTRCqXlO4-39" value="&lt;div&gt;Cek debit air&lt;/div&gt;" style="ellipse;whiteSpace=wrap;html=1;" vertex="1" parent="1">
          <mxGeometry x="990" y="70" width="120" height="80" as="geometry" />
        </mxCell>
        <mxCell id="e49Z0NjCQxnOTRCqXlO4-40" style="rounded=0;orthogonalLoop=1;jettySize=auto;html=1;entryX=1.013;entryY=0.373;entryDx=0;entryDy=0;entryPerimeter=0;dashed=1;dashPattern=8 8;" edge="1" parent="1" source="e49Z0NjCQxnOTRCqXlO4-39" target="e49Z0NjCQxnOTRCqXlO4-9">
          <mxGeometry relative="1" as="geometry" />
        </mxCell>
      </root>
    </mxGraphModel>
  </diagram>
</mxfile>
